<?xml version="1.0" encoding="UTF-8"?>
<svg width="200px" height="200px" viewBox="0 0 200 200" version="1.1" xmlns="http://www.w3.org/2000/svg" xmlns:xlink="http://www.w3.org/1999/xlink">
    <!-- Generator: Sketch 44.1 (41455) - http://www.bohemiancoding.com/sketch -->
    <title>advice</title>
    <desc>Created with Sketch.</desc>
    <defs></defs>
    <g id="Page-1" stroke="none" stroke-width="1" fill="none" fill-rule="evenodd">
        <g id="advice" stroke="#403F33">
            <g id="Group-3" transform="translate(37.000000, 41.000000)" stroke-width="12">
                <g id="Group-4">
                    <circle id="Oval" cx="14" cy="110" r="14"></circle>
                    <path d="M24.0224766,103 C23.6149587,85.0826551 28.7489039,71.2754751 39.4243121,61.57846 C55.4374244,47.0329373 73.6883943,60.4907908 90.7826273,35.6309803 C96.4616559,27.3720794 100.534113,17.1617526 103,5" id="Path-3" transform="translate(63.500000, 54.000000) rotate(7.000000) translate(-63.500000, -54.000000) "></path>
                    <polyline id="Rectangle-2" stroke-linecap="round" stroke-linejoin="round" transform="translate(104.000000, 19.000000) rotate(-25.000000) translate(-104.000000, -19.000000) " points="92 7 116 7 116 31"></polyline>
                </g>
            </g>
            <g id="Group" transform="translate(131.000000, 142.000000) rotate(-45.000000) translate(-131.000000, -142.000000) translate(113.000000, 119.000000)" stroke-linecap="round" stroke-width="6" stroke-linejoin="round">
                <g id="Group-2">
                    <polyline id="Rectangle-2-Copy" transform="translate(12.000000, 34.000000) rotate(-17.000000) translate(-12.000000, -34.000000) " points="3 25 21 25 21 43"></polyline>
                    <polyline id="Rectangle-2-Copy" transform="translate(24.000000, 12.000000) rotate(-195.000000) translate(-24.000000, -12.000000) " points="15 3 33 3 33 21"></polyline>
                </g>
            </g>
            <g id="Group-5" transform="translate(42.008622, 33.008622)" stroke-width="6" stroke-linecap="round" stroke-linejoin="round">
                <polyline id="Rectangle-2-Copy" transform="translate(12.000000, 34.000000) rotate(-17.000000) translate(-12.000000, -34.000000) " points="3 25 21 25 21 43"></polyline>
                <polyline id="Rectangle-2-Copy" transform="translate(24.000000, 12.000000) rotate(-195.000000) translate(-24.000000, -12.000000) " points="15 3 33 3 33 21"></polyline>
            </g>
        </g>
    </g>
</svg>
