<svg xmlns="http://www.w3.org/2000/svg" width="512" height="512"><path fill="#0D2636" fill-rule="evenodd" d="M296 354.2c50-6 103-24 103-110.2 0-24.5-8.5-44.5-22.6-60 2.3-5.8 9.5-28-2.7-58.8 0 0-18.2-6-60.8 22.6-18.5-5-38.5-8-57-8-19 0-39 3-56.8 8-43-28.5-61.2-22.6-61.2-22.6-12 30.8-5 53-2.6 59-14 15.3-22.7 35.3-22.7 59.8 0 86 53 104.3 103 110.2-6.5 5.4-12.4 15.8-14.6 30.4-12.5 5.4-46 15.8-65.6-18.6 0 0-11.8-21.3-34-22.7 0 0-22.2-.5-1.8 13.6 0 0 15 6.4 25 32.2 0 0 13.5 43 76 29.5v38.5c0 6-4.4 12.7-15.8 11C96 439 32.2 354.5 32.2 255.7c0-123.8 100.2-224 224-224 123.4 0 224 100.2 223.6 224 0 98.8-64 182.7-152.8 212.7-11.4 2.2-16-4.6-16-11v-62c0-21-6.7-34.5-15-41.3zm216-98C512 114.7 397.3 0 256.2 0 114.7 0 0 114.7 0 256.2 0 397.2 114.7 512 256.2 512c141 0 255.8-114.7 255.8-255.8z"/></svg>