<?xml version="1.0" encoding="UTF-8"?>
<svg width="512px" height="512px" viewBox="0 0 512 512" version="1.1" xmlns="http://www.w3.org/2000/svg" xmlns:xlink="http://www.w3.org/1999/xlink">
    <!-- Generator: Sketch 47.1 (45422) - http://www.bohemiancoding.com/sketch -->
    <title>github-icon</title>
    <desc>Created with Sketch.</desc>
    <defs></defs>
    <g id="Page-1" stroke="none" stroke-width="1" fill="none" fill-rule="evenodd">
        <g id="github-icon" fill="#0D2636">
            <g id="if_github_291716">
                <path d="M296.133,354.174 C346.018,348.283 399.075,330.145 399.075,243.982 C399.075,219.492 390.451,199.534 376.405,184.113 C378.671,178.223 385.92,155.999 373.671,125.166 C373.671,125.166 355.532,119.268 312.912,147.835 C294.773,142.852 274.822,139.672 256.23,139.672 C237.177,139.672 217.219,142.852 199.533,147.835 C156.451,119.268 138.313,125.166 138.313,125.166 C126.072,155.999 133.33,178.223 135.595,184.113 C121.534,199.533 112.918,219.492 112.918,243.982 C112.918,330.145 165.975,348.283 215.86,354.174 C209.516,359.626 203.619,370.047 201.353,384.561 C188.651,389.999 155.545,400.434 135.595,365.969 C135.595,365.969 123.8,344.659 101.583,343.3 C101.583,343.3 79.359,342.847 99.77,356.892 C99.77,356.892 114.73,363.704 124.713,389.545 C124.713,389.545 138.313,432.634 200.892,419.025 L200.892,457.568 C200.892,463.474 196.362,470.27 185.027,468.458 C96.139,438.977 32.2,354.626 32.2,255.77 C32.2,131.963 132.416,31.748 256.23,31.748 C379.577,31.748 480.253,131.964 479.8,255.77 C479.8,354.626 415.854,438.524 326.972,468.458 C315.63,470.724 311.099,463.928 311.099,457.568 L311.099,395.45 C311.1,374.577 304.288,360.985 296.133,354.174 L296.133,354.174 Z M512,256.23 C512,114.73 397.263,0 256.23,0 C114.73,0 0,114.73 0,256.23 C0,397.263 114.73,512 256.23,512 C397.263,512 512,397.263 512,256.23 L512,256.23 Z" id="Shape"></path>
            </g>
        </g>
    </g>
</svg>