<?xml version="1.0" encoding="UTF-8"?>
<svg width="24px" height="24px" viewBox="0 0 24 24" version="1.1" xmlns="http://www.w3.org/2000/svg" xmlns:xlink="http://www.w3.org/1999/xlink">
    <!-- Generator: Sketch 51.2 (57519) - http://www.bohemiancoding.com/sketch -->
    <title>Artboard</title>
    <desc>Created with Sketch.</desc>
    <defs></defs>
    <g id="Artboard" stroke="none" stroke-width="1" fill="none" fill-rule="evenodd">
        <g id="mastodon" transform="translate(-1.000000, 0.000000)" fill="#189EFC" fill-rule="nonzero">
            <path d="M13.012,0 C9.833,0 6.785,1.263 4.537,3.511 C-0.16,8.178 -0.182,15.768 4.485,20.465 C9.153,25.16 16.742,25.182 21.438,20.514 C21.454,20.498 21.471,20.483 21.489,20.465 C26.173,15.783 26.173,8.192 21.489,3.511 C19.24,1.263 16.191,0 13.012,0 Z M13.012,6.713 L15.578,6.713 C15.121,7.035 14.949,7.937 14.93,8.482 L14.93,13.475 C14.93,14.539 14.075,15.395 13.012,15.395 C11.948,15.395 11.093,14.54 11.093,13.475 L11.093,8.632 C11.092,7.568 11.947,6.713 13.012,6.713 Z M13,7.96 C12.63,7.96 12.328,8.26 12.328,8.632 C12.328,9.002 12.629,9.304 13,9.304 C13.371,9.304 13.671,9.003 13.671,8.632 C13.671,8.261 13.373,7.96 13,7.96 Z M6.311,8.15 C7.374,8.15 8.231,9.004 8.231,10.068 L8.231,15.01 C8.252,15.559 8.422,16.459 8.879,16.78 L6.311,16.78 C5.248,16.78 4.393,15.925 4.393,14.864 L4.393,10.069 C4.393,9.003 5.248,8.15 6.311,8.15 Z M19.715,8.15 C20.778,8.15 21.633,9.004 21.633,10.068 L21.633,14.863 C21.633,15.927 20.778,16.781 19.715,16.781 L17.147,16.781 C17.604,16.459 17.778,15.558 17.797,15.01 L17.797,10.068 C17.797,9.003 18.65,8.15 19.715,8.15 Z M6.301,9.398 C5.928,9.398 5.629,9.698 5.629,10.058 C5.629,10.417 5.928,10.723 6.289,10.723 C6.648,10.723 6.954,10.423 6.954,10.054 C6.954,9.683 6.654,9.381 6.284,9.381 L6.301,9.398 Z M19.727,9.398 C19.356,9.398 19.055,9.698 19.055,10.058 C19.055,10.417 19.354,10.723 19.727,10.723 C20.096,10.723 20.397,10.423 20.397,10.054 C20.397,9.683 20.098,9.381 19.727,9.381 L19.727,9.398 Z M13,10.358 C12.63,10.358 12.328,10.658 12.328,11.017 C12.328,11.376 12.629,11.692 13,11.692 C13.371,11.692 13.671,11.392 13.671,11.017 C13.671,10.642 13.373,10.343 13,10.343 L13,10.358 Z M6.299,11.782 C5.928,11.782 5.629,12.082 5.629,12.457 C5.629,12.832 5.928,13.131 6.289,13.131 C6.648,13.131 6.954,12.832 6.954,12.457 C6.954,12.082 6.654,11.782 6.284,11.782 L6.299,11.782 Z M19.727,11.782 C19.356,11.782 19.055,12.082 19.055,12.457 C19.055,12.832 19.354,13.131 19.727,13.131 C20.096,13.131 20.397,12.832 20.397,12.457 C20.396,12.082 20.098,11.782 19.727,11.782 Z M13,12.742 C12.63,12.742 12.328,13.041 12.328,13.416 C12.328,13.791 12.629,14.09 13,14.09 C13.371,14.09 13.671,13.791 13.671,13.416 C13.671,13.041 13.373,12.742 13,12.742 Z M6.299,14.182 C5.928,14.182 5.629,14.481 5.629,14.846 C5.629,15.213 5.928,15.522 6.289,15.522 C6.648,15.522 6.954,15.221 6.954,14.846 C6.954,14.471 6.654,14.176 6.284,14.176 L6.299,14.182 Z M19.727,14.182 C19.356,14.182 19.055,14.481 19.055,14.846 C19.055,15.213 19.354,15.522 19.727,15.522 C20.096,15.522 20.397,15.221 20.397,14.846 C20.397,14.471 20.098,14.176 19.727,14.176 L19.727,14.182 Z" id="Shape"></path>
        </g>
    </g>
</svg>