<?xml version="1.0" encoding="UTF-8"?>
<svg width="512px" height="512px" viewBox="0 0 512 512" version="1.1" xmlns="http://www.w3.org/2000/svg" xmlns:xlink="http://www.w3.org/1999/xlink">
    <!-- Generator: Sketch 47.1 (45422) - http://www.bohemiancoding.com/sketch -->
    <title>twitter-icon</title>
    <desc>Created with Sketch.</desc>
    <defs></defs>
    <g id="Page-1" stroke="none" stroke-width="1" fill="none" fill-rule="evenodd">
        <g id="twitter-icon">
            <g id="if_twitter_291710">
                <path d="M256.23,512 C396.81,512 512,396.81 512,256.23 C512,115.184 396.81,0 256.23,0 C115.184,0 0,115.184 0,256.23 C0,396.81 115.184,512 256.23,512 L256.23,512 Z" id="Shape" fill="#1EBEF0"></path>
                <path d="M276.635,137.407 C267.558,143.758 260.762,152.827 255.77,162.803 L253.505,168.701 C252.146,172.778 251.232,176.864 250.779,180.942 C250.326,183.207 250.326,185.027 249.873,186.84 L249.873,190.465 L250.326,196.363 L251.232,204.073 L250.779,204.073 L248.06,204.073 L246.247,204.073 C224.023,203.62 202.26,198.628 183.207,190.012 L171.873,184.575 C169.608,183.661 167.795,182.302 165.522,180.943 C152.828,173.686 141.494,164.163 131.51,153.735 C125.167,146.931 119.269,139.674 114.278,131.964 C108.84,142.401 105.662,154.641 105.662,167.343 C105.662,171.874 106.115,176.412 107.021,180.943 C107.021,183.208 107.474,185.028 107.935,186.841 C112.013,200.441 119.269,212.69 129.245,221.759 L134.237,226.298 L127.886,224.931 C119.723,222.665 111.56,219.947 103.85,216.767 C104.756,233.094 111.107,248.06 121.082,259.856 C130.604,271.183 143.306,279.807 157.812,283.884 L141.033,284.79 L126.979,284.337 C137.408,309.74 161.444,328.332 190.012,330.598 C163.71,350.096 131.057,360.986 96.139,360.986 C121.988,376.859 151.469,386.827 183.66,388.639 L204.525,388.639 C303.835,383.201 382.295,301.117 382.295,200.44 L382.295,190.918 C385.92,187.747 389.545,184.575 393.185,180.943 C401.793,173.233 409.511,164.163 415.855,154.641 C405.418,161.445 393.185,165.07 379.578,165.07 L379.125,165.07 L378.672,165.07 L379.125,165.07 C391.357,156.907 400.888,144.666 405.872,130.605 C396.357,135.597 385.468,139.221 374.578,142.401 L373.219,142.854 L365.064,144.666 C353.269,131.964 336.489,123.801 317.897,123.801 L317.445,123.801 L316.539,123.801 C311.555,123.801 306.556,124.254 301.571,125.168 C294.322,126.98 287.057,130.152 281.167,133.784 L276.635,137.407 Z" id="Shape" fill="#FFFFFF"></path>
            </g>
        </g>
    </g>
</svg>