<svg xmlns="http://www.w3.org/2000/svg" width="512" height="512"><g fill="none" fill-rule="evenodd"><path fill="#1EBEF0" d="M256.2 512C396.8 512 512 396.8 512 256.2 512 115.2 396.8 0 256.2 0 115.2 0 0 115.2 0 256.2 0 396.8 115.2 512 256.2 512z"/><path fill="#FFF" d="M276.6 137.4c-9 6.4-15.8 15.4-20.8 25.4l-2.3 6c-1.4 4-2.3 8-2.7 12-.5 2.4-.5 4.2-1 6v3.7l.5 6 1 7.6h-5c-22.2 0-44-5-63-14l-11.3-5-6.5-3c-12.7-7-24-16.4-34-27-6.3-6.6-12.2-14-17.2-21.5-5.5 10.5-8.6 22.7-8.6 35.4 0 4.6.4 9 1.3 13.6 0 2 .5 4 1 5.7 4 13.8 11.3 26 21.2 35l5 4.7-6.3-1.6c-9-2.2-17-5-25-8 1 16.2 7 31.2 17 43 9.3 11.3 22 20 36.5 24l-16.8 1-14-.6c10.2 25.7 34.2 44 63 46.6-26 19-58.8 30-93.8 30 26 16 55.3 25.8 87.5 27.6h21c99.3-5.3 178-87.4 178-188v-10l11-10c8.3-7.8 16-16.8 22.4-26.4-11 6.8-23 10.5-36.8 10.5h-.8.3c12.4-8 22-20 27-34-9.6 5-20.5 9-31.4 12l-1.5.8-8 1.8c-12-12.6-28.8-21-47.4-21h-1c-5 0-10 .7-15 1.6-7.2 2-14.4 5-20.3 8.7l-4.4 3.5z"/></g></svg>